<svg width="19" height="22" viewBox="0 0 19 22" fill="none" xmlns="http://www.w3.org/2000/svg">
<path fill-rule="evenodd" clip-rule="evenodd" d="M17.9005 19.8477L14.3205 15.6168L14.3195 15.6156C16.9095 11.6725 16.4594 6.02911 13.2916 2.72735C10.1238 -0.574408 5.32983 -0.396864 2.34317 3.13283C-0.643496 6.66252 -0.793727 12.3281 2.00007 16.0719C4.79387 19.8156 9.569 20.3476 12.9055 17.2867L16.4855 21.5176C16.7364 21.825 17.1081 21.9486 17.4578 21.8407C17.8075 21.7328 18.0808 21.4104 18.1725 20.9973C18.2643 20.5841 18.1603 20.1446 17.9005 19.8477ZM13.1966 13.3642C12.1248 15.5582 10.1441 16.9097 8.00049 16.9097C4.68678 16.9097 2.00049 13.735 2.00049 9.81879C2.00049 5.90259 4.68678 2.72789 8.00049 2.72789C10.1441 2.72789 12.1248 4.07941 13.1966 6.27334C14.2684 8.46727 14.2684 11.1703 13.1966 13.3642Z" fill="black"/>
</svg>
